<svg
  xmlns="http://www.w3.org/2000/svg"
  width="192"
  height="192"
  viewBox="0 0 192 192"
  fill="none"
  stroke="#1a1a1a"
  stroke-width="8"
  stroke-linecap="round"
  stroke-linejoin="round"
>
  <circle cx="96" cy="96" r="96" fill="#FFD700" stroke="none" />
  <path d="M105.6 105.6L90 90" />
  <path d="M122.628 133.94a8 8 0 1 1-11.316-11.312l-7.068 7.072a8 8 0 1 1-11.316-11.316l25.456-25.456a8 8 0 1 1 11.316 11.316l-7.072 7.068a8 8 0 1 1 11.312 11.316z" />
  <path d="M134 134L128.4 128.4" />
  <path d="M63.6 63.6L58 58" />
  <path d="M73.616 99.072a8 8 0 1 1-11.316-11.316l7.072-7.068a8 8 0 1 1-11.312-11.316l11.312-11.312a8 8 0 1 1 11.316 11.312l7.068-7.072a8 8 0 1 1 11.316 11.316z" />
</svg>
